<svg xmlns="http://www.w3.org/2000/svg" width="250" height="103" viewBox="0 0 250 105" fill="#333">
  <g id="Layer_2" data-name="Layer 2">
    <g id="Layer_1-2" data-name="Layer 1">
      <g id="orbel-golanians-logo" >
        <g>
          <path d="M20.8818,22.4248c7.4161,0,12.8887,5.4,12.8887,16.7051,0,13.0332-4.5361,23.1865-16.0576,23.1865-8.9287,0-14.1846-3.8164-14.1846-17.4258,0-9.289,2.2324-14.1133,6.4082-16.7773C12.2412,23.8652,16.6328,22.4248,20.8818,22.4248ZM16.0576,31.93a70.1119,70.1119,0,0,0-.6484,10.5127c0,9.001,1.2959,10.4414,5.832,11.3047a59.734,59.734,0,0,0,1.1524-11.3047C22.3936,35.6016,20.3779,33.2979,16.0576,31.93Z" transform="translate(-3.2344 -6.0922)"/>
          <path d="M59.1143,47.7715c3.1679,4.0322,3.6718,4.1758,6.4082,4.4639a5.2589,5.2589,0,0,1,.5761,2.3759c0,4.2491-2.8086,7.7051-7.4882,7.7051-3.2413,0-4.1768-1.08-5.6885-3.9609-1.9444-3.4561-2.9531-5.1123-4.3213-5.9043l-.3594,4.6806c-.36,3.8164-1.584,4.8243-5.833,4.8243-4.7519,0-5.04-1.1524-5.04-7.6329,0-3.6718.0722-8.8564.2881-13.249.0722-2.5918.1435-5.2558.2158-7.9209a18.52,18.52,0,0,1-.5039-4.32c0-2.88,1.6562-4.1035,8.497-4.68a21.9774,21.9774,0,0,1,8.7842-1.7285c7.7051,0,10.8008,4.6084,10.8008,11.0889C65.45,39.49,63.5781,42.7305,59.1143,47.7715ZM48.8887,43.9551a16.9591,16.9591,0,0,1,4.32.792,18.8863,18.8863,0,0,0,1.6562-7.2725c0-3.5283-1.2959-5.2568-5.4-5.6172Z" transform="translate(-3.2344 -6.0922)"/>
          <path d="M98.3545,49.4268c0,6.8408-3.5283,12.7451-14.7617,12.7451A41.7779,41.7779,0,0,1,72.9365,60.876c-3.1689-1.1524-3.457-2.7364-3.457-8.4248,0-3.6719.0723-8.3526.2881-12.3848q.1083-3.3486.2168-6.9131a13.0834,13.0834,0,0,1-.5049-4.32c0-2.88,1.6562-4.1035,8.4971-4.68a21.9779,21.9779,0,0,1,8.7851-1.7285c7.8487,0,10.8008,4.5361,10.8008,9.7207,0,3.8887-1.8008,6.625-4.1045,10.0088C97.2021,44.3145,98.1387,46.043,98.3545,49.4268Zm-17.93,3.9609a12.9333,12.9333,0,0,0,4.6084,1.0078c1.44,0,2.88-.1435,2.88-3.168,0-1.9443-.6475-3.24-7.2-4.1767Zm.5762-13.3213a44.2678,44.2678,0,0,1,5.2558.1436,13.7018,13.7018,0,0,0,.6485-4.3916c0-2.4483-1.2237-3.961-5.3282-4.32Z" transform="translate(-3.2344 -6.0922)"/>
          <path d="M123.3379,61.1641c-2.0166.4326-4.7529.5761-9.7207.5761a29.555,29.555,0,0,1-4.6807-.2158c-3.1679-.36-6.6963-2.5928-6.6963-5.1123,0-3.6006.0713-9.4336.2871-14.3291.0723-2.8809.1446-5.833.2168-8.93a13.1766,13.1766,0,0,1-1.0087-5.4717c0-3.1689,1.7285-4.7529,8.6416-4.7529,3.8876,0,14.5449.2158,17.0654.2158a6.7734,6.7734,0,0,1,1.2236,4.1045c0,4.0323-1.8,5.6885-5.1846,5.9043-1.5117.2168-5.9043.2881-9.289.2881l-.2158,6.6973c3.0966-.2881,9.6494-.2881,10.6572-.2881a4.3389,4.3389,0,0,1,.792,2.664c0,3.6719-1.5117,5.544-3.8164,5.7608-1.0078.2158-4.1045.0713-7.7764.2881l-.0723,4.0322,12.5293.0713a3.9745,3.9745,0,0,1,.792,2.5928C127.082,58.7881,125.5693,60.8037,123.3379,61.1641Z" transform="translate(-3.2344 -6.0922)"/>
          <path d="M152.6406,50.8672a4.8134,4.8134,0,0,1,1.2246,3.456c0,5.4727-2.9531,6.9854-6.1933,7.2012-2.0156.2158-4.6084.2881-7.2725.2881-3.96,0-8.4961-2.3047-8.4961-4.8965,0-13.6816.2158-14.9775.2158-25.2744a18.7687,18.7687,0,0,1-.5761-4.32c0-2.88,3.1679-4.8965,8.7129-4.8965,4.0322,0,4.5361,1.1523,4.5361,3.0244,0,4.9688-.36,14.7608-.72,25.5625C146.4482,51.0117,151.3447,50.8672,152.6406,50.8672Z" transform="translate(-3.2344 -6.0922)"/>
        </g>
        <g>
          <path d="M19.1387,92.63a8.99,8.99,0,0,1,5.1474-1.32c3.6953,0,4.5537,1.2539,4.5537,4.2236a76.1775,76.1775,0,0,1-.5283,8.7109c-.33,2.97-5.0156,4.1582-10.7568,4.1582-8.9756,0-14.32-3.7617-14.32-16.3007,0-10.625,3.2988-15.4424,8.3808-16.8282,2.64-2.31,4.8174-3.2343,9.503-3.2343,4.4873,0,6.7978,2.0459,6.7978,5.9394a6.5913,6.5913,0,0,1-2.9043,5.4776A22.6186,22.6186,0,0,0,15.7725,81.74a32.708,32.708,0,0,0-1.5176,8.7119c0,6.7969,1.0556,9.3047,4.751,10.6905Z" transform="translate(-3.2344 -6.0922)"/>
          <path d="M47.6494,72.0391c6.7979,0,11.8135,4.95,11.8135,15.31,0,11.9453-4.1582,21.251-14.7168,21.251-8.1836,0-13.001-3.4981-13.001-15.9707,0-8.5137,2.0459-12.9356,5.874-15.377C39.7305,73.3594,43.7559,72.0391,47.6494,72.0391ZM43.2285,80.751a64.23,64.23,0,0,0-.5947,9.6347c0,8.2491,1.1885,9.5694,5.3457,10.3614a54.7405,54.7405,0,0,0,1.0557-10.3614C49.0352,84.1162,47.1875,82.0049,43.2285,80.751Z" transform="translate(-3.2344 -6.0922)"/>
          <path d="M82.1016,98.1074a4.411,4.411,0,0,1,1.1211,3.167c0,5.0156-2.7051,6.4024-5.6748,6.6a66.6616,66.6616,0,0,1-6.6651.2647c-3.6308,0-7.7871-2.1123-7.7871-4.4883,0-12.5391.1973-13.7266.1973-23.1641a17.2024,17.2024,0,0,1-.5274-3.959c0-2.64,2.9033-4.4882,7.9844-4.4882,3.6953,0,4.1582,1.0566,4.1582,2.7724,0,4.5537-.33,13.5283-.66,23.4278C76.4258,98.2393,80.9141,98.1074,82.1016,98.1074Z" transform="translate(-3.2344 -6.0922)"/>
          <path d="M92.5293,74.085a20.2244,20.2244,0,0,1,9.3057-2.0459c4.2236,0,6.1377,1.7822,6.4677,4.4218.7911,6.6,2.375,16.961,4.2237,23.56,1.4521,1.1221,2.0459,1.8486,2.0459,3.2344,0,3.63-4.62,5.1474-9.3711,5.1474-2.7715,0-3.5645-1.65-4.4219-6.7314a65.1041,65.1041,0,0,1-6.7314.1982,50.47,50.47,0,0,0-.792,5.8077,4.3207,4.3207,0,0,1-2.97.791c-2.3759,0-5.874-.8574-5.874-4.2237C84.4121,102.5283,87.91,86.1621,92.5293,74.085ZM98.0732,82.4c-.7919,2.8379-2.1123,8.7109-2.9033,12.8691a40.6017,40.6017,0,0,0,4.752-.2636C99.3926,92.4316,98.6016,86.03,98.0732,82.4Z" transform="translate(-3.2344 -6.0922)"/>
          <path d="M135.627,73.4248a6.5938,6.5938,0,0,1,4.1562-1.1875c3.168,0,5.2148,1.2539,5.2148,4.29,0,5.6748,0,22.7022-1.0566,27.9815-.4619,2.8379-2.2441,3.8935-5.6094,3.8935-3.3,0-3.5634-1.7158-3.8935-6.4013-2.5733-4.4219-5.0156-8.7774-7.6553-13.001a130.9744,130.9744,0,0,1-.66,15.0469c-.33,2.8379-2.1113,4.289-5.3457,4.289-1.5175,0-2.705-.4619-3.0351-1.5175,0-4.4873-.1328-16.3663-.1328-25.3418a17.1913,17.1913,0,0,1-.9239-4.752c0-2.5732,2.9043-4.4873,7.9864-4.4873,2.4414,0,3.6289.5283,4.289,1.5176,1.4512,1.98,4.9493,8.5137,6.6,11.55C135.5605,81.3447,135.627,75.1416,135.627,73.4248Z" transform="translate(-3.2344 -6.0922)"/>
          <path d="M150.0156,81.0811a17.05,17.05,0,0,1-.7265-4.4883c0-2.64,2.9043-4.5537,7.9853-4.5537,3.7617,0,4.0918,1.0566,4.0918,2.7724l-.33,24.0215c1.2539.7256,1.9141,1.5176,1.9141,2.64,0,4.4873-3.4316,6.93-8.0518,6.93-4.3554,0-5.1474-1.0556-5.1474-6.9951,0-3.3.1318-8.4472.1318-12.6054C149.9492,86.2939,149.9492,83.7207,150.0156,81.0811Z" transform="translate(-3.2344 -6.0922)"/>
          <path d="M172.5859,74.085a20.2247,20.2247,0,0,1,9.3057-2.0459c4.2236,0,6.1377,1.7822,6.4678,4.4218.791,6.6,2.375,16.961,4.2236,23.56,1.4522,1.1221,2.0459,1.8486,2.0459,3.2344,0,3.63-4.62,5.1474-9.3711,5.1474-2.7715,0-3.5644-1.65-4.4219-6.7314a65.1031,65.1031,0,0,1-6.7314.1982,50.47,50.47,0,0,0-.792,5.8077,4.32,4.32,0,0,1-2.97.791c-2.376,0-5.874-.8574-5.874-4.2237C164.4688,102.5283,167.9668,86.1621,172.5859,74.085ZM178.13,82.4c-.792,2.8379-2.1123,8.7109-2.9033,12.8691a40.6012,40.6012,0,0,0,4.7519-.2636C179.4492,92.4316,178.6582,86.03,178.13,82.4Z" transform="translate(-3.2344 -6.0922)"/>
          <path d="M215.6836,73.4248a6.5949,6.5949,0,0,1,4.1572-1.1875c3.168,0,5.2139,1.2539,5.2139,4.29,0,5.6748,0,22.7022-1.0567,27.9815-.4609,2.8379-2.2431,3.8935-5.6093,3.8935-3.2989,0-3.5625-1.7158-3.8926-6.4013-2.5742-4.4219-5.0156-8.7774-7.6563-13.001a130.7722,130.7722,0,0,1-.66,15.0469c-.33,2.8379-2.1113,4.289-5.3457,4.289-1.5176,0-2.7051-.4619-3.0352-1.5175,0-4.4873-.1318-16.3663-.1318-25.3418a17.1578,17.1578,0,0,1-.9238-4.752c0-2.5732,2.9033-4.4873,7.9853-4.4873,2.4414,0,3.6289.5283,4.2891,1.5176,1.4521,1.98,4.95,8.5137,6.6,11.55C215.6172,81.3447,215.6836,75.1416,215.6836,73.4248Z" transform="translate(-3.2344 -6.0922)"/>
          <path d="M241.2256,72.0391c6.9951,0,10.2949,3.5644,10.2949,7.1279,0,4.2236-2.4424,5.9394-5.4111,5.9394a7.7779,7.7779,0,0,1-2.3106-.33c-.5273-2.4414-1.6494-3.63-4.8174-4.6856a6.2814,6.2814,0,0,0-.3955,2.31c0,1.7158.33,2.1123,7.7207,6.8633,4.1582,2.5742,5.6094,4.5537,5.6094,8.3818,0,5.6094-4.2226,10.8223-12.7363,10.8223-6.93,0-11.6152-2.1114-11.6152-7.6553,0-3.3652,2.0459-5.543,4.8837-5.543a4.18,4.18,0,0,1,1.5176.1983c2.64,4.751,4.1572,5.873,6.0713,5.873,1.32,0,1.8477-.7256,1.8477-1.5176,0-.8584-.9893-1.7822-7.8535-6.5332-3.6954-2.6406-4.9493-5.082-4.9493-8.7119a10.1624,10.1624,0,0,1,3.8946-8.3154C234.7578,73.2275,236.7383,72.0391,241.2256,72.0391Z" transform="translate(-3.2344 -6.0922)"/>
        </g>
        <g id="smile">
          <circle id="eye-lt" cx="199.6096" cy="27.5389" r="5.0881" stroke="#333" stroke-miterlimit="10" stroke-width="4"/>
          <circle id="eye-rt" cx="218.7731" cy="24.128" r="5.0881" stroke="#333" stroke-miterlimit="10" stroke-width="4"/>
          <g id="mouth">
            <path id="lips" d="M240.5,31.8258c-.0577.7836-.2044,16.1481-20.6941,21.6016-12.78,3.4016-22.1232-3.9983-27.5555-5.2592-3.9445-2.1389-8.698,6.5611.074,8.5185,17.8852,4.4695,29.0942,6.2589,39.3039-.963,9.2262-6.5262,13.3752-18.5877,12.2732-21.665S240.5,31.8258,240.5,31.8258Z" transform="translate(-3.2344 -6.0922)" stroke="#333" stroke-miterlimit="10" stroke-width="4"/>
            <path id="lips-corner" d="M242.3153,36.7017c.9051.6487,1.2078,1.104,2.2906.9035s2.3447-.8286,2.32-2.2731a5.3855,5.3855,0,0,0-2.7517-4.3817c-2.0789-1.05-4.6813-.2067-4.468,1.3494A9.385,9.385,0,0,0,242.3153,36.7017Z" transform="translate(-3.2344 -6.0922)" stroke="#333" stroke-miterlimit="10" stroke-width="4"/>
          </g>
          <path id="wink-0" d="M229.8276,16.2117c-.6261-.45-.2242-1.87.1232-3.5632.4369-2.13.4906-4.19.8264-4.3539.6027-.2942,1.2247-.3591,1.47.4412a19.184,19.184,0,0,1-.829,6.7393C230.8223,16.6926,230.7249,16.8559,229.8276,16.2117Z" transform="translate(-3.2344 -6.0922)" stroke="#333" stroke-miterlimit="10" stroke-width="4"/>
          <path id="wink-1" d="M236.7138,20.1508c.6931.3374,1.752-.6911,3.0769-1.8012,1.6667-1.3963,3.4538-2.4223,3.4385-2.7956-.0274-.67-.2658-1.2482-1.0866-1.0841a19.1867,19.1867,0,0,0-5.5364,3.9312C235.8181,19.5041,235.7207,19.6673,236.7138,20.1508Z" transform="translate(-3.2344 -6.0922)" stroke="#333" stroke-miterlimit="10" stroke-width="4"/>
        </g>
      </g>
    </g>
  </g>
</svg>
